{"title":"A Decent Arrangement (2016) 720p Webrip x264 AAC 5.1 ESub -DDR","uid":15821459,"size":2140448584,"categoryP":"video","categoryS":"hd___movies","magnet":"?xt=urn:btih:37beda9e8211bdcaa16ba6c6e0208ce5d0df4391&amp;dn=A+Decent+Arrangement+%282016%29+720p+Webrip+x264+AAC+5.1+ESub+-DDR&amp;tr=udp%3A%2F%2Ftracker.leechers-paradise.org%3A6969&amp;tr=udp%3A%2F%2Fzer0day.ch%3A1337&amp;tr=udp%3A%2F%2Fopen.demonii.com%3A1337&amp;tr=udp%3A%2F%2Ftracker.coppersurfer.tk%3A6969&amp;tr=udp%3A%2F%2Fexodus.desync.com%3A6969","seeders":15,"leechers":15,"uploader":"SaM","files":3,"time":1473771926,"description":"\n720p WebRip x264\r\n\r\nHindi/English AAC 5.1 Audio\r\n\r\n\r\n\r\nEnglish Subtitle\r\n\r\n\r\n\r\n\r\nSynopsis:\r\nIMDB\r\nA Decent Arrangement is the story of Ashok Khosla, an Indian-American copywriter, who travels to India for an arranged marriage. After he encounters an American woman traveling through India and is set up with an Indian woman who unexpectedly captivates him, Ashok must navigate the complexity of cultural traditions and the leanings of his own heart. With subtle comedy and true-to-life drama, A Decent Arrangement shows us a side of India not commonly seen by western audiences and delivers an emotional story that resonates with those of us in search of our place in the world.\r\n\r\n\r\n\r\n{ SCREENSHOTS }\r\n \nhttp://extraimago.com/image/wluR \nhttp://extraimago.com/image/wluQ \nhttp://extraimago.com/image/wluL \nhttp://extraimago.com/image/wluy \nhttp://extraimago.com/image/wluq \nhttp://extraimago.com/image/wluS \nhttp://extraimago.com/image/wluO \nhttp://extraimago.com/image/wluE\r\n\r\nSpecs:\r\nSource: Netflix HD Rip @ DDR\r\n\r\nFormat : Matroska\r\nFile size : 1.98 GiB\r\nDuration : 1 h 35 min\r\nOverall bit rate : 2 958 kb/s\r\nEncoded date : UTC 2016-09-12 23:02:08\r\nWriting application : mkvmerge v9.2.0 ('Photograph') 64bit\r\nWriting library : libebml v1.3.3 + libmatroska v1.4.4\r\n\r\nVideo\r\nID : 1\r\nFormat : AVC\r\nFormat/Info : Advanced Video Codec\r\nFormat profile :   \r\nFormat settings, CABAC : Yes\r\nFormat settings, ReFrames : 9 frames\r\nCodec ID : V_MPEG4/ISO/AVC\r\nDuration : 1 h 35 min\r\nBit rate : 2 796 kb/s\r\nWidth : 1 280 pixels\r\nHeight : 720 pixels\r\nDisplay aspect ratio : 16:9\r\nFrame rate mode : Constant\r\nFrame rate : 24.000 FPS\r\nColor space : YUV\r\nChroma subsampling : 4:2:0\r\nBit depth : 8 bits\r\nScan type : Progressive\r\nBits/(Pixel*Frame) : 0.126\r\nStream size : 1.87 GiB (95%)\r\nLanguage : English\r\nDefault : Yes\r\nForced : No\r\nColor range : Limited\r\nColor primaries : BT.709\r\nTransfer characteristics : BT.709\r\nMatrix coefficients : BT.709\r\n\r\nAudio\r\nID : 2\r\nFormat : AAC\r\nFormat/Info : Advanced Audio Codec\r\nFormat profile : LC\r\nCodec ID : A_AAC\r\nDuration : 1 h 35 min\r\nBit rate : 160 kb/s\r\nChannel(s) : 6 channels\r\nChannel positions : Front: L C R, Side: L R, LFE\r\nSampling rate : 48.0 kHz\r\nFrame rate : 46.875 FPS (1024 spf)\r\nCompression mode : Lossy\r\nDelay relative to video : 18 ms\r\nStream size : 109 MiB (5%)\r\nLanguage : Hindi\r\nDefault : Yes\r\nForced : No","torrent":{"xt":"urn:btih:37beda9e8211bdcaa16ba6c6e0208ce5d0df4391","amp;dn":"A+Decent+Arrangement+%282016%29+720p+Webrip+x264+AAC+5.1+ESub+-DDR","amp;tr":["udp%3A%2F%2Ftracker.leechers-paradise.org%3A6969","udp%3A%2F%2Fzer0day.ch%3A1337","udp%3A%2F%2Fopen.demonii.com%3A1337","udp%3A%2F%2Ftracker.coppersurfer.tk%3A6969","udp%3A%2F%2Fexodus.desync.com%3A6969"],"infoHash":"37beda9e8211bdcaa16ba6c6e0208ce5d0df4391","infoHashBuffer":{"type":"Buffer","data":[55,190,218,158,130,17,189,202,161,107,166,198,224,32,140,229,208,223,67,145]},"announce":[],"urlList":[]}}